    <svg width="140" height="140" viewBox="0 0 140 140" fill="none" xmlns="http://www.w3.org/2000/svg">
        <circle cx="70" cy="70" r="70" fill="#ffffff" />
        <g
            fill="none"
            fillRule="evenodd"
            stroke="none"
            strokeWidth="1"
            transform="translate(-70 -650) translate(90 672)"
        >
            <path
                fillRule="evenodd"
                clipRule="evenodd"
                d="M62 26H34H14V46V50V70H34H62H82V50V46V26H62ZM74 51.8C69.5 53.8 65.8 57.5 63.7 62H32.3C30.3 57.4 26.6 53.7 22 51.7V44.3C26.6 42.3 30.3 38.6 32.3 34H63.7C65.8 38.5 69.5 42.2 74 44.2V51.8ZM58 48C58 53.5228 53.5228 58 48 58C42.4772 58 38 53.5228 38 48C38 42.4772 42.4772 38 48 38C53.5228 38 58 42.4772 58 48Z"
                fill="#0C0B31"
            />
        </g>
    </svg>