<svg xmlns="http://www.w3.org/2000/svg" width="170" height="57" viewBox="0 0 170 57">
  <defs>
    <style>.cls-1{fill:#dd3239;}.cls-2{fill:#343d72;}.cls-3{fill:#3d99ce;}</style>
  </defs>
  <g id="g10">
    <g id="g12">
      <path id="path14" class="cls-1" d="M68.31,9.56a22.47,22.47,0,0,0-36.78,0l-.22.31h5.33l0-.06a18.15,18.15,0,0,1,26.45,0l.06.06h5.32l-.21-.31h0"/>
      <path id="path16" class="cls-2" d="M28.59,29.21l-.1.1A7.68,7.68,0,0,1,23,31.86a6.91,6.91,0,0,1-7-7.26,6.91,6.91,0,0,1,7-7.26,7.68,7.68,0,0,1,5.48,2.55l.1.1,2.62-3.16-.07-.09a10,10,0,0,0-8-3.82,12.12,12.12,0,0,0-8.29,3,11.32,11.32,0,0,0-3.52,8.64,11.35,11.35,0,0,0,3.52,8.64,12.07,12.07,0,0,0,8.29,3,10,10,0,0,0,8-3.82l.07-.08-2.62-3.17"/>
      <path id="path18" class="cls-2" d="M33.86,35.85h4.62V13.28H33.86Z"/>
      <path id="path20" class="cls-2" d="M56.59,30.94a6.63,6.63,0,0,1-3.41,1.14c-1.49,0-2.17-.79-2.17-2.55v-12h4.71V13.3H51v-7L46.48,8.7v4.6H42.57v4.26h3.91V30.3c0,3.47,2.05,5.84,5.12,5.9a7.26,7.26,0,0,0,4.11-1l0,0,1.11-4.35-.27.16"/>
      <path id="path22" class="cls-2" d="M60.42,35.85h4.63V13.28H60.42Z"/>
      <path id="path24" class="cls-3" d="M104.66,35.85a.63.63,0,0,0,.61-.65V13.89a.6.6,0,0,0-.61-.61H99.88a.64.64,0,0,0-.66.61V35.2a.67.67,0,0,0,.66.65ZM102.27,2.92a3.94,3.94,0,1,1-3.94,3.93,3.94,3.94,0,0,1,3.94-3.93"/>
      <path id="path26" class="cls-3" d="M114.63,35.24a.59.59,0,0,1-.61.61h-4.78a.63.63,0,0,1-.65-.61V5.06a.63.63,0,0,1,.65-.61H114a.59.59,0,0,1,.61.61V35.24"/>
      <path id="path28" class="cls-3" d="M121.81,35.85c-.59,0-.89,0-1.16-.43l-6.53-10.6,6.74-11a1.24,1.24,0,0,1,1.21-.52h4.46c.45,0,.52.25.52.39a1.53,1.53,0,0,1-.32.74l-6.61,9.86,7.11,10.56c.23.34.32.5.32.64s0,.38-.52.38h-5.22"/>
      <path id="path30" class="cls-3" d="M126.27,24.76c0-6.6,4.52-11.85,10.86-11.85,6.54,0,10.26,5.61,10.26,11V25c0,.77-.38.88-.78.88H132.17a5.19,5.19,0,0,0,5.16,5.17A6,6,0,0,0,142,28.51c.26-.29.53-.67.87-.67a1,1,0,0,1,.53.16l3.1,2c.3.17.48.37.48.61a1.32,1.32,0,0,1-.18.53c-1.76,3.33-5.49,5.18-9.59,5.18-6.75,0-11-5.12-11-11.53M132.2,22h10.07a5.07,5.07,0,0,0-10.07,0"/>
      <path id="path32" class="cls-3" d="M85.24,30.92c-3,0-5.43-2.81-5.43-6.27s2.43-6.26,5.43-6.26,5.44,2.81,5.44,6.26S88.24,30.92,85.24,30.92Zm.54-18A8.17,8.17,0,0,0,80,15V5.06a.61.61,0,0,0-.61-.61H74.61a.59.59,0,0,0-.61.61V35.24a.59.59,0,0,0,.61.61h4.73a.59.59,0,0,0,.61-.61v-.85c1.27,1.4,3.82,1.9,5.78,1.9,5.87,0,11-4.5,11-11.76s-5.15-11.62-11-11.62"/>
      <path id="path34" class="cls-3" d="M153.84,31.63h.44c.53,0,1-.17,1-.59s-.27-.63-.88-.63a2.54,2.54,0,0,0-.52.05Zm0,2.34h-.95V29.86a7.82,7.82,0,0,1,1.58-.13,2.66,2.66,0,0,1,1.43.3,1.16,1.16,0,0,1,.4.9,1.06,1.06,0,0,1-.86,1v.05a1.23,1.23,0,0,1,.76,1,2.78,2.78,0,0,0,.3,1h-1a3.86,3.86,0,0,1-.33-1c-.07-.45-.32-.65-.85-.65h-.45Zm-2.53-2.16a3.19,3.19,0,0,0,3.21,3.28,3.14,3.14,0,0,0,3.13-3.25,3.17,3.17,0,1,0-6.34,0Zm7.39,0A4.13,4.13,0,0,1,154.46,36a4.14,4.14,0,1,1,0-8.27,4.12,4.12,0,0,1,4.21,4.11"/>
    </g>
  </g>
  <path class="cls-2" d="M110,52.53a.24.24,0,0,1-.11.2.33.33,0,0,1-.54-.25V49.91h-1.93v3.21A1.62,1.62,0,0,0,110,54.35a.79.79,0,0,1-.38.57,1.44,1.44,0,0,1-.77.19,2.06,2.06,0,0,1-.91-.21l-.12-.06v1.72a3.75,3.75,0,0,0,1.36.27,2.85,2.85,0,0,0,1.86-.64,2.47,2.47,0,0,0,.81-1.94V49.91H110Z"/>
  <path class="cls-2" d="M106.88,53.12V48H105V52.8a1.74,1.74,0,0,0,1.69,1.93h0a1.74,1.74,0,0,0,.71-.15l.08,0-.07-.08a2,2,0,0,1-.48-1.33"/>
  <path class="cls-2" d="M118.17,51.84V49.91h-.69A2.59,2.59,0,0,0,114,48a2.69,2.69,0,0,0-1.62,2.35v4.39h.08a1.93,1.93,0,0,0,1.85-1.93h.81V50.87h-.81v-.53a.57.57,0,0,1,.29-.5.65.65,0,0,1,1,.55v1.77a2.54,2.54,0,0,0,2.5,2.57h.08V52.8h0a.64.64,0,0,1-.64-.64v-.32Z"/>
  <path class="cls-2" d="M56.88,52.28a2.35,2.35,0,0,1-2.38,2.49A1.88,1.88,0,0,1,52.83,54v3h-1V49.88h1v.72a1.92,1.92,0,0,1,1.67-.82A2.37,2.37,0,0,1,56.88,52.28Zm-1,0a1.51,1.51,0,1,0-1.49,1.53A1.47,1.47,0,0,0,55.86,52.29Z"/>
  <path class="cls-2" d="M60.84,50l-.18,1a1.59,1.59,0,0,0-.71-.17c-.87,0-1.28.91-1.28,2.21v1.72h-1V49.88h1V51c.25-.84.73-1.18,1.35-1.18A1.93,1.93,0,0,1,60.84,50Z"/>
  <path class="cls-2" d="M60.84,52.26a2.52,2.52,0,0,1,5,0,2.52,2.52,0,0,1-5,0Zm4,0a1.52,1.52,0,1,0-1.52,1.56A1.5,1.5,0,0,0,64.87,52.26Z"/>
  <path class="cls-2" d="M70.86,49.88l-2,4.79h-1l-2-4.79H67l1.4,3.49,1.39-3.49Z"/>
  <path class="cls-2" d="M71.14,48.14a.69.69,0,1,1,.68.64A.66.66,0,0,1,71.14,48.14Zm.18,1.74h1v4.79h-1Z"/>
  <path class="cls-2" d="M78.16,47.28v7.39h-1V54a1.9,1.9,0,0,1-1.65.82,2.5,2.5,0,0,1,0-5,1.88,1.88,0,0,1,1.66.81V47.28Zm-1,5a1.52,1.52,0,0,0-1.53-1.53,1.48,1.48,0,0,0-1.49,1.53,1.51,1.51,0,1,0,3,0Z"/>
  <path class="cls-2" d="M83.8,52.68H80a1.36,1.36,0,0,0,1.49,1.16,1.53,1.53,0,0,0,1.34-.68l.8.4a2.51,2.51,0,1,1-2.19-3.78,2.33,2.33,0,0,1,2.4,2.47C83.82,52.38,83.81,52.53,83.8,52.68Zm-1-.81a1.28,1.28,0,0,0-1.38-1.16A1.34,1.34,0,0,0,80,51.87Z"/>
  <path class="cls-2" d="M89.32,47.28v7.39h-1V54a1.89,1.89,0,0,1-1.65.82,2.5,2.5,0,0,1,0-5,1.86,1.86,0,0,1,1.66.81V47.28Zm-1,5a1.52,1.52,0,0,0-1.53-1.53,1.48,1.48,0,0,0-1.49,1.53,1.51,1.51,0,1,0,3,0Z"/>
  <path class="cls-2" d="M97.6,52.27a2.37,2.37,0,0,1-2.39,2.5A1.92,1.92,0,0,1,93.55,54v.72h-1V47.28h1v3.31a1.88,1.88,0,0,1,1.66-.81A2.35,2.35,0,0,1,97.6,52.27Zm-1,0a1.47,1.47,0,0,0-1.49-1.53,1.55,1.55,0,0,0,0,3.09A1.5,1.5,0,0,0,96.58,52.26Z"/>
  <path class="cls-2" d="M102.56,49.88l-3,7.12H98.52l1-2.53-1.9-4.59h1.08l1.38,3.33,1.37-3.33Z"/>
</svg>