<?xml version="1.0" encoding="utf-8"?>
<!-- Generator: Adobe Illustrator 21.0.0, SVG Export Plug-In . SVG Version: 6.00 Build 0)  -->
<svg version="1.1" id="Layer_1" xmlns="http://www.w3.org/2000/svg" xmlns:xlink="http://www.w3.org/1999/xlink" x="0px" y="0px"
	 width="223.4px" height="133.9px" viewBox="0 0 223.4 133.9" style="enable-background:new 0 0 223.4 133.9;" xml:space="preserve"
	>
<style type="text/css">
	.st0{fill:#FFFFFF;}
	.st1{fill:#00A54E;}
</style>
<g>
	<g>
		<rect x="4.5" y="2.9" class="st0" width="214.4" height="128.2"/>
		<path d="M219.4,131.5H4V2.4h215.4V131.5z M5,130.5h213.5V3.4H5V130.5z"/>
	</g>
	<g>
		<g>
			<path class="st1" d="M75.3,84c0-0.3,0-0.7,0-1l-63.9,0v3.6h63.8C75.2,85.7,75.3,84.8,75.3,84z"/>
		</g>
		<g>
			<path class="st1" d="M74.6,90.9l-63.3,0v3.6h62.5C74.1,93.3,74.4,92.1,74.6,90.9z"/>
		</g>
		<g>
			<path class="st1" d="M74.2,75.1l-62.9,0v3.6h63.6C74.7,77.5,74.5,76.3,74.2,75.1z"/>
		</g>
		<g>
			<path class="st1" d="M62.1,54.6c-4.6-3.8-13.1-8.8-32.7-8.8H11.3v25H73C70.7,64.2,66.8,58.4,62.1,54.6z"/>
		</g>
		<g>
			<path class="st1" d="M11.3,121.7h18.4c8.9,0,19.2-1,26.5-4.9c1.5-0.8,3-1.7,4.4-2.7h0.1V114c5.1-3.8,9.1-9.2,11.7-15.2l-61,0
				V121.7z"/>
		</g>
		<g>
			<path class="st1" d="M162.1,78.7c-0.2-1.2-0.4-2.4-0.7-3.6l-81.2,0c-0.3,1.2-0.5,2.4-0.7,3.6H162.1z"/>
		</g>
		<g>
			<path class="st1" d="M120.8,123.2c17.4,0,32.4-10.1,38.6-24.5l-77.2,0C88.4,113.1,103.4,123.2,120.8,123.2z"/>
		</g>
		<g>
			<path class="st1" d="M79.8,90.9c0.2,1.2,0.5,2.4,0.9,3.6h80.3c0.3-1.2,0.6-2.4,0.9-3.6L79.8,90.9z"/>
		</g>
		<g>
			<path class="st1" d="M120.8,44.3c-17.9,0-33.6,10.8-39.3,26.5h78.7C154.4,55.1,138.7,44.3,120.8,44.3z"/>
		</g>
		<g>
			<path class="st1" d="M79.1,84c0,0.9,0,1.8,0.1,2.6h83.1c0.1-0.9,0.1-1.7,0.1-2.6c0-0.3,0-0.7,0-1l-83.3,0
				C79.2,83.3,79.1,83.6,79.1,84z"/>
		</g>
		<g>
			<rect x="163.7" y="45.6" class="st1" width="48.2" height="25.3"/>
		</g>
		<g>
			<rect x="172" y="98.8" class="st1" width="31.3" height="23"/>
		</g>
		<g>
			<rect x="172" y="75.1" class="st1" width="31.3" height="3.6"/>
		</g>
		<g>
			<rect x="172" y="83" class="st1" width="31.3" height="3.6"/>
		</g>
		<g>
			<rect x="172" y="90.9" class="st1" width="31.3" height="3.6"/>
		</g>
	</g>
	<g>
		<rect x="11.4" y="35.3" width="200.4" height="3.4"/>
	</g>
	<g>
		<g>
			<path d="M11.7,12.1h4l7.8,13.8h0.1V12.1h3.5v19h-3.9l-7.9-13.8h-0.1v13.8h-3.5V12.1z"/>
		</g>
		<g>
			<path d="M30.2,12.1h10.2v3.3h-6.7V20h6.4v3.3h-6.4v4.5h6.7v3.3H30.2V12.1z"/>
		</g>
		<g>
			<path d="M43,12.1h3.6l3.3,13.2h0.1l3.3-13.2h2.6l3.2,13.2H59l3.3-13.2h3.6l-5.5,19h-2.8l-3.1-12.5h-0.1l-3.1,12.5h-2.8L43,12.1z"
				/>
		</g>
		<g>
			<path d="M87.6,24.1l-6.2-12h3.8l4.1,8.7l4.2-8.7h3.9l-6.3,12v7h-3.5V24.1z"/>
		</g>
		<g>
			<path d="M106.4,11.7c5.4,0,9.9,4.3,9.9,9.9c0,5.4-4.5,9.8-9.9,9.8c-5.5,0-9.9-4.4-9.9-9.8C96.5,16,101,11.7,106.4,11.7z
				 M106.4,28.2c3.6,0,6.4-3,6.4-6.6c0-3.6-2.8-6.6-6.4-6.6c-3.6,0-6.4,3-6.4,6.6C100,25.1,102.8,28.2,106.4,28.2z"/>
		</g>
		<g>
			<path d="M118.1,12.1h5.8c2.2,0,3.5,0.4,4.6,1.3c1.1,0.9,2.2,2.4,2.2,4.6c0,1.3-0.5,3.2-1.8,4.5c-1.1,1.1-2.2,1.3-3.2,1.6l5.2,7
				h-4.3l-5-7.3h-0.1v7.3h-3.5V12.1z M121.6,21.2h2.3c2.9,0,3.4-1.9,3.4-2.9c0-1.1-0.6-2.9-3.4-2.9h-2.3V21.2z"/>
		</g>
		<g>
			<path d="M132.9,12.1h3.5v8.2h0.1l5.9-8.2h4.1l-7.2,9.3l7.2,9.6h-4.1l-5.9-8.3h-0.1v8.3h-3.5V12.1z"/>
		</g>
		<g>
			<path d="M177,25.8c-1.5,3.5-5.1,5.7-8.8,5.7c-5.5,0-9.9-4.6-9.9-9.9c0-5.2,4.3-9.8,9.8-9.8c3.2,0,7.1,1.6,8.9,5.8h-4
				c-1.4-1.6-3-2.5-5.1-2.5c-3.1,0-6.2,2.8-6.2,6.6c0,3.6,2.9,6.6,6.3,6.6c2.5,0,3.9-1.5,4.8-2.4H177z"/>
		</g>
		<g>
			<path d="M179.1,12.1h3.5v19h-3.5V12.1z"/>
		</g>
		<g>
			<path d="M188.9,15.4h-3.5v-3.3H196v3.3h-3.5v15.7h-3.5V15.4z"/>
		</g>
		<g>
			<path d="M203,24.1l-6.2-12h3.8l4.1,8.7l4.2-8.7h3.9l-6.3,12v7H203V24.1z"/>
		</g>
	</g>
</g>
</svg>
