    <svg width="140" height="140" viewBox="0 0 140 140" fill="none" xmlns="http://www.w3.org/2000/svg">
        <circle cx="70" cy="70" r="70" fill="#ffffff" />
        <path
            fillRule="evenodd"
            clipRule="evenodd"
            d="M59 21.7V0H8V20.5C3 26.3 0 33.8 0 42C0 50.2 3 57.7 8 63.5V84H59V62.3C63.4 56.7 66 49.7 66 42C66 34.3 63.4 27.3 59 21.7ZM33 67C19.2 67 8 55.8 8 42C8 28.2 19.2 17 33 17C46.8 17 58 28.2 58 42C58 55.8 46.8 67 33 67ZM30 24H38V40.9L45.1 48L40.1 54L30 43.9V24Z"
            fill="#0C0B31"
            transform="translate(-54 -642) translate(90 672)"
        />
    </svg>