    <svg width="140" height="140" viewBox="0 0 140 140" fill="none" xmlns="http://www.w3.org/2000/svg">
        <circle cx="70" cy="70" r="70" fill="#ffffff" />
        <path
            ill-rule="evenodd"
            clipRule="evenodd"
            d="M80 42C80 36.7 76.5 32.1 71.7 30.6C70.1 21.2 61.9 14 52 14C42 14 33.8 21.3 32.3 30.8C30.9 30.3 29.5 30 28 30C21.4 30 16 35.4 16 42C16 48.6 21 54 29 54L45 69.8V83H53V69.8L69 54C75.2 53.5 80 48.3 80 42ZM35 54H45V64L35 54ZM63 54H53V64L63 54Z"
            fill="#11111F"
            transform="translate(-68 -648) translate(90 672)"
        />
    </svg>